<?xml version="1.0" standalone="no"?><!DOCTYPE svg PUBLIC "-//W3C//DTD SVG 1.1//EN" "http://www.w3.org/Graphics/SVG/1.1/DTD/svg11.dtd"><svg t="1728143817743" class="icon" viewBox="0 0 1024 1024" version="1.1" xmlns="http://www.w3.org/2000/svg" p-id="10799" width="32" height="32" xmlns:xlink="http://www.w3.org/1999/xlink"><path d="M466.498065 814.327742l-0.990968 2.064516a8.258065 8.258065 0 0 1-11.313549 4.046452L398.203871 792.774194a9.00129 9.00129 0 0 1-3.88129-11.643871l0.990967-2.064517a8.258065 8.258065 0 0 1 11.313549-4.046451L462.451613 802.683871a8.258065 8.258065 0 0 1 4.046452 11.643871z" fill="#8a8a8a" p-id="10800"></path><path d="M422.234839 791.205161H379.870968a11.726452 11.726452 0 0 1-11.891613-12.221935v-1.734194A11.809032 11.809032 0 0 1 379.870968 765.027097h42.363871a11.809032 11.809032 0 0 1 11.891613 12.221935v1.734194a11.726452 11.726452 0 0 1-11.891613 12.221935z" fill="#8a8a8a" p-id="10801"></path><path d="M442.054194 569.806452a20.314839 20.314839 0 0 1 25.765161-12.8 111.896774 111.896774 0 0 1 51.778064 31.050322 90.83871 90.83871 0 0 1 18.663226 60.944516 121.55871 121.55871 0 0 1-62.513548 108.098065 246.585806 246.585806 0 0 1-40.216774 18.993548l-4.294194 1.569032-7.184516 2.807742a20.397419 20.397419 0 0 1-33.032258-21.470967 23.04 23.04 0 0 1 5.367742-9.331613 21.966452 21.966452 0 0 1 4.459355-3.468387 50.539355 50.539355 0 0 1 6.606451-3.385807c2.725161-1.156129 6.35871-2.56 9.992258-3.88129l3.303226-1.23871a205.790968 205.790968 0 0 0 33.527742-15.690322 81.094194 81.094194 0 0 0 42.941936-73.331613c0-18.993548-3.963871-28.572903-9.083871-34.683871s-15.36-12.552258-33.692904-18.745807a20.232258 20.232258 0 0 1-12.387096-25.434838zM476.903226 417.114839a20.397419 20.397419 0 0 1 28.490322 4.046451c13.790968 18.498065 25.930323 34.023226 52.273549 43.272258s73.00129 13.295484 154.590968-1.734193a20.397419 20.397419 0 1 1 7.349677 40.051613c-84.232258 15.525161-138.074839 13.295484-175.483871 0s-56.898065-37.987097-71.432258-57.806452a20.397419 20.397419 0 0 1 4.211613-27.829677z" fill="#8a8a8a" p-id="10802"></path><path d="M779.891613 549.821935a17.507097 17.507097 0 1 1-17.424516-17.424516 17.341935 17.341935 0 0 1 17.424516 17.424516z" fill="#8a8a8a" p-id="10803"></path><path d="M779.891613 549.821935a17.507097 17.507097 0 1 1-17.424516-17.424516 17.341935 17.341935 0 0 1 17.424516 17.424516z" fill="#8a8a8a" p-id="10804"></path><path d="M756.603871 334.616774a17.424516 17.424516 0 1 1-17.424516-17.507097 17.424516 17.424516 0 0 1 17.424516 17.507097z" fill="#8a8a8a" p-id="10805"></path><path d="M727.535484 456.753548A17.424516 17.424516 0 1 1 710.193548 439.329032a17.341935 17.341935 0 0 1 17.341936 17.424516z" fill="#8a8a8a" p-id="10806"></path><path d="M486.152258 693.677419a123.870968 123.870968 0 1 0 123.870968 123.870968 123.870968 123.870968 0 0 0-123.870968-123.870968zM332.056774 817.548387a154.095484 154.095484 0 1 1 154.095484 154.095484 154.095484 154.095484 0 0 1-154.095484-153.682581z" fill="#8a8a8a" p-id="10807"></path><path d="M480.123871 817.96129V679.556129h12.056774v138.405161z" fill="#8a8a8a" p-id="10808"></path><path d="M480.949677 821.016774l-69.780645-119.824516 10.405162-6.110968 69.780645 119.824516z" fill="#8a8a8a" p-id="10809"></path><path d="M483.096774 823.163871L362.694194 753.96129l6.028387-10.735484 120.40258 69.202581z" fill="#8a8a8a" p-id="10810"></path><path d="M486.152258 823.989677H346.83871v-12.056774h139.313548z" fill="#8a8a8a" p-id="10811"></path><path d="M489.207742 823.163871l-120.485161 69.863226-6.028387-10.487742 120.40258-69.780645z" fill="#8a8a8a" p-id="10812"></path><path d="M491.354839 821.016774L421.574194 941.419355l-10.405162-6.028387 69.780645-120.402581z" fill="#8a8a8a" p-id="10813"></path><path d="M492.180645 817.96129v139.065807h-12.056774V817.96129z" fill="#8a8a8a" p-id="10814"></path><path d="M491.354839 814.988387l69.285161 120.402581-10.487742 6.028387-69.202581-120.402581z" fill="#8a8a8a" p-id="10815"></path><path d="M489.207742 812.75871l119.824516 69.780645-6.193548 10.487742-119.741936-69.863226z" fill="#8a8a8a" p-id="10816"></path><path d="M486.152258 811.932903h138.405161v12.056774H486.152258z" fill="#8a8a8a" p-id="10817"></path><path d="M483.096774 812.75871L602.83871 743.225806l6.110967 10.405162-119.741935 69.615484z" fill="#8a8a8a" p-id="10818"></path><path d="M480.949677 814.988387l69.202581-119.824516 10.487742 6.028387-69.285161 119.824516z" fill="#8a8a8a" p-id="10819"></path><path d="M486.152258 870.317419a52.356129 52.356129 0 1 0-52.356129-52.356129 52.356129 52.356129 0 0 0 52.356129 52.356129z" fill="#8a8a8a" p-id="10820"></path><path d="M556.676129 855.04l-1.073548 2.064516a8.836129 8.836129 0 0 1-11.643871 4.046452l-57.806452-27.994839a8.91871 8.91871 0 0 1-3.963871-11.643871l0.990968-2.064516a8.836129 8.836129 0 0 1 12.304516-4.046452l57.806452 27.994839a8.258065 8.258065 0 0 1 3.385806 11.643871z" fill="#8a8a8a" p-id="10821"></path><path d="M547.84 592.846452h-123.870968a24.774194 24.774194 0 0 0-26.178064 23.865806 25.269677 25.269677 0 0 0 26.178064 23.865807h45.914839v180.851612a14.781935 14.781935 0 0 0 15.112258 14.03871H487.225806a14.781935 14.781935 0 0 0 15.112259-14.03871v-180.851612h45.997419a24.774194 24.774194 0 0 0 26.178064-23.865807 25.847742 25.847742 0 0 0-26.673548-23.865806z" fill="#8a8a8a" p-id="10822"></path><path d="M575.174194 867.096774h-43.685162a11.974194 11.974194 0 0 1-12.221935-12.221935v-1.734194a11.974194 11.974194 0 0 1 12.221935-12.221935h43.685162a11.974194 11.974194 0 0 1 12.221935 12.221935v1.734194a11.974194 11.974194 0 0 1-12.221935 12.221935z" fill="#8a8a8a" p-id="10823"></path><path d="M207.029677 428.098065a73.166452 73.166452 0 0 1 58.632258-31.710968 73.661935 73.661935 0 0 1 56.980646 20.56258c16.516129 17.176774 29.48129 46.905806 37.987096 96.701936a94.141935 94.141935 0 0 0 21.058065 48.557419 66.064516 66.064516 0 0 0 33.032258 19.406452 135.432258 135.432258 0 0 0 38.152258 3.633548c6.193548 0 12.056774-0.495484 17.589677-0.908387 5.450323 0 10.818065-0.660645 15.442581-0.660645a10.24 10.24 0 0 1 0 20.397419c-3.79871 0-8.258065 0-14.203871 0.578065-5.450323 0-11.726452 0.660645-18.250322 0.825806a155.664516 155.664516 0 0 1-43.932904-4.294193 85.966452 85.966452 0 0 1-42.776774-25.352258 113.383226 113.383226 0 0 1-26.095484-58.88c-8.258065-48.557419-20.067097-73.166452-32.454193-85.801291s-25.434839-14.534194-42.446452-14.534193A52.934194 52.934194 0 0 0 222.967742 440.32a71.514839 71.514839 0 0 0-14.947097 36.170323 10.157419 10.157419 0 1 1-20.314839 0 90.83871 90.83871 0 0 1 19.323871-48.392258z" fill="#8a8a8a" p-id="10824"></path><path d="M412.242581 370.043871c0 33.032258 7.597419 86.709677-11.065807 122.136774-21.470968 41.290323-27.912258 87.287742-11.065806 100.087742 28.572903 20.975484 119.907097 24.774194 153.021935 13.956129s68.624516-25.6 68.624516-102.978064-55.246452-133.202581-77.378064-144.268387-122.136774 11.065806-122.136774 11.065806z" fill="#8a8a8a" p-id="10825"></path><path d="M576.330323 398.534194c-34.353548 10.487742-59.953548 52.356129-59.953549 102.4 0 45.419355 9.909677 84.397419 44.263226 99.096774 27.334194-11.643871 51.778065-32.04129 51.778065-96.619355a183.494194 183.494194 0 0 0-36.087742-104.877419z" fill="#8a8a8a" p-id="10826"></path><path d="M602.83871 219.416774c19.736774-26.178065 0-124.531613-104.712258-124.531613s-156.903226 58.797419-156.903226 130.890323 26.178065 163.509677 134.358709 163.509677S654.864516 350.307097 654.864516 290.931613a71.349677 71.349677 0 0 0-52.025806-71.514839z" fill="#8a8a8a" p-id="10827"></path><path d="M654.864516 291.509677a70.523871 70.523871 0 0 1-12.8 40.134194 38.234839 38.234839 0 0 1-6.44129 7.597419A154.673548 154.673548 0 0 1 561.548387 379.375484c-20.975484-13.956129-42.529032-34.931613-50.621935-55.246452a64.743226 64.743226 0 0 1 6.358709-58.797419c-6.35871-6.35871-12.8-39.556129-12.8-64s12.8-53.512258 58.79742-53.512258a63.421935 63.421935 0 0 1 40.134193 13.956129c8.670968 23.865806 7.514839 47.153548-0.578064 58.219355a71.762581 71.762581 0 0 1 52.025806 71.514838z" fill="#8a8a8a" p-id="10828"></path><path d="M566.007742 247.08129c5.863226-1.816774 7.845161-12.139355 4.541935-23.287742s-10.735484-18.580645-16.516129-16.516129-8.258065 12.139355-4.541935 23.205162 10.652903 18.332903 16.516129 16.598709zM648.423226 271.772903h4.707097a90.83871 90.83871 0 0 1 2.312258 18.580645 24.774194 24.774194 0 0 1-6.441291 0.578065c-11.065806 0-19.736774-4.624516-19.736774-9.827097s8.092903-9.331613 19.15871-9.331613zM641.486452 332.221935a38.234839 38.234839 0 0 1-6.441291 7.59742 33.032258 33.032258 0 0 1-7.514838 0.578064A99.096774 99.096774 0 0 1 585.661935 330.322581 71.184516 71.184516 0 0 1 553.290323 299.685161a4.459355 4.459355 0 0 1 1.156129-4.624516 4.046452 4.046452 0 0 1 4.707096 1.734194 67.468387 67.468387 0 0 0 29.068387 27.912258 84.810323 84.810323 0 0 0 53.264517 7.514838z" fill="#8a8a8a" p-id="10829"></path><path d="M547.261935 305.548387h-1.238709a2.972903 2.972903 0 0 1-1.734194-4.046452 16.516129 16.516129 0 0 1 14.534194-11.065806 18.828387 18.828387 0 0 1 8.753548 1.156129 3.055484 3.055484 0 0 1 1.734194 4.129032 2.972903 2.972903 0 0 1-4.046452 1.734194 10.983226 10.983226 0 0 0-15.112258 6.35871 3.138065 3.138065 0 0 1-2.890323 1.734193z" fill="#8a8a8a" p-id="10830"></path><path d="M400.020645 258.972903c7.019355 27.912258 29.729032 46.492903 50.621936 41.290323s7.019355-26.178065 0-54.090323S445.935484 193.23871 425.042581 198.193548s-31.95871 33.032258-25.021936 60.779355z" fill="#8a8a8a" p-id="10831"></path><path d="M529.754839 99.096774a409.021935 409.021935 0 0 1-44.75871-9.909677c-19.819355-7.019355-59.375484-19.819355-52.934194-39.556129 0 0-12.8 39.556129 6.35871 58.714838C461.708387 131.550968 529.754839 99.096774 529.754839 99.096774z" fill="#8a8a8a" p-id="10832"></path><path d="M450.56 569.806452a20.232258 20.232258 0 0 1 25.682581-12.965162 227.674839 227.674839 0 0 1 78.864516 50.539355c25.352258 24.27871 48.887742 56.898065 54.172903 93.894194 7.101935 49.548387 1.569032 84.645161-7.101935 108.758709a144.268387 144.268387 0 0 1-13.295484 27.416775c-1.403871 2.312258-2.890323 4.459355-3.881291 6.028387l-0.825806 1.238709c0 0.578065-0.578065 0.990968-0.743226 1.156129a20.397419 20.397419 0 0 1-38.4-14.616774 37.987097 37.987097 0 0 1 4.541936-8.258064l1.238709-1.899355 2.972903-4.624516a100.170323 100.170323 0 0 0 9.579355-19.736774c6.193548-17.176774 11.396129-45.089032 5.12-89.269678-3.468387-24.113548-19.736774-48.887742-41.950967-70.110968a189.935484 189.935484 0 0 0-63.504517-41.290322A20.314839 20.314839 0 0 1 450.56 569.806452zM477.729032 417.362581a20.397419 20.397419 0 0 1 28.572903 3.633548l2.229678 2.890323c30.389677 39.390968 97.858065 126.67871 253.192258 134.689032a20.314839 20.314839 0 1 1-1.981936 40.629677c-174.162581-9.00129-251.292903-108.84129-283.499354-150.461935l-2.147097-2.807742a20.48 20.48 0 0 1 3.633548-28.572903z" fill="#8a8a8a" p-id="10833"></path></svg>